# xmcd
#
# Track frame offsets:
#	183
#	14300
#	29410
#	44048
#	58050
#	66193
#	78358
#	88040
#	97568
#	109140
#	121625
#	133478
#	147243
#	159770
#	170445
#	181318
#	191453
#	200820
#	211538
#	224130
#	235068
#	252188
#	264498
#	277383
#	293598
#
# Disc length: 4055 seconds
#
# Revision: 1
# Processed by: cddbd v1.5.2PL0 Copyright (c) Steve Scherf et al.
# Submitted via: audiograbber 1.83.01
#
DISCID=700fd519
DTITLE=Various Artist - Bea and Baby Records presents: The Best Of Chicago Blues
DYEAR=1900
DGENRE=Blues
TTITLE0=Homesick James - My Baby Gone
TTITLE1=Homesick James - My Kind Of Woman
TTITLE2=Homesick James - Homesick Sunnyland Special
TTITLE3=James Cotton - One More Mile
TTITLE4=James Cotton - There Must Be A Panic
TTITLE5=Hound Dog Taylor - My Baby's Coming Home
TTITLE6=Hound Dog Taylor - Five 'Take Five'
TTITLE7=Eddie Boyd - Thank You Baby
TTITLE8=Eddie Boyd - Blue Monday Blues
TTITLE9=Eddie Boyd - The Blues Is Here To Stay
TTITLE10=Eddie Boyd - I'm Commin' Home
TTITLE11=Eddie Boyd - All The Way
TTITLE12=Eddie Boyd - Where You Belong
TTITLE13=Little Mack Simmons - Don't Come Back
TTITLE14=Little Mack Simmons - Times Are Getting Tougher
TTITLE15=Little Mack Simmons - I'm Your Fool
TTITLE16=Little Mack Simmons - Let Out Of Jail
TTITLE17=Earl Hooker - Dynamite
TTITLE18=Bobby Saxton - Trying To Make A Living
TTITLE19=L.C. McKinley - Sharpest Man In Town
TTITLE20=Sunnyland Slim - Too Late To Pray
TTITLE21=Sunnyland Slim - House Rock
TTITLE22=Andrew McMahon - Special Agent
TTITLE23=Willie Williams - 38 Woman
TTITLE24=Willie Williams - Somebody Changed The Lock
EXTD=
EXTT0=
EXTT1=
EXTT2=
EXTT3=
EXTT4=
EXTT5=
EXTT6=
EXTT7=
EXTT8=
EXTT9=
EXTT10=
EXTT11=
EXTT12=
EXTT13=
EXTT14=
EXTT15=
EXTT16=
EXTT17=
EXTT18=
EXTT19=
EXTT20=
EXTT21=
EXTT22=
EXTT23=
EXTT24=
PLAYORDER=
